<svg width="24" height="25" viewBox="0 0 24 25" fill="none" xmlns="http://www.w3.org/2000/svg">
<path d="M18.4807 6.74417C17.255 4.79217 15.6767 3.11832 14.2945 1.73853C14.2096 1.65372 14.1056 1.59053 13.9912 1.55427C13.8768 1.51801 13.7553 1.50974 13.6371 1.53015C13.5188 1.55056 13.4072 1.59905 13.3115 1.67155C13.2159 1.74405 13.1391 1.83845 13.0875 1.94681L10.1953 8.02051L7.1694 6.00323C7.08733 5.94852 6.99528 5.91052 6.8985 5.89144C6.80173 5.87235 6.70214 5.87254 6.60544 5.892C6.50874 5.91146 6.41683 5.9498 6.33498 6.00483C6.25312 6.05986 6.18292 6.1305 6.1284 6.21271C4.30138 8.96689 3.375 11.4608 3.375 13.625C3.375 15.9125 4.2837 18.1063 5.9012 19.7238C7.51871 21.3413 9.71251 22.25 12 22.25C14.2875 22.25 16.4813 21.3413 18.0988 19.7238C19.7163 18.1063 20.625 15.9125 20.625 13.625C20.625 11.2927 19.9236 9.04196 18.4807 6.74417ZM17.5589 14.4894C17.3798 15.6705 16.8276 16.7632 15.9829 17.6079C15.1383 18.4526 14.0456 19.0048 12.8645 19.1839C12.8263 19.1898 12.7878 19.1928 12.7491 19.1928C12.5602 19.1925 12.3784 19.121 12.2399 18.9925C12.1015 18.864 12.0166 18.688 12.0022 18.4997C11.9879 18.3113 12.0451 18.1245 12.1625 17.9765C12.28 17.8286 12.4489 17.7303 12.6356 17.7015C13.498 17.5625 14.2947 17.1552 14.9125 16.5375C15.5302 15.9197 15.9375 15.123 16.0764 14.2606C16.0915 14.1632 16.1255 14.0698 16.1766 13.9856C16.2278 13.9014 16.295 13.8282 16.3744 13.77C16.4539 13.7118 16.544 13.6698 16.6397 13.6464C16.7354 13.6231 16.8347 13.6188 16.9321 13.6338C17.0294 13.6488 17.1228 13.6829 17.207 13.734C17.2912 13.7851 17.3645 13.8524 17.4227 13.9318C17.4809 14.0113 17.5229 14.1014 17.5462 14.1971C17.5696 14.2928 17.5739 14.3921 17.5588 14.4894H17.5589Z" fill="#DA3E3E"/>
</svg>
