<svg width="24" height="24" viewBox="0 0 24 24" fill="none" xmlns="http://www.w3.org/2000/svg">
<path d="M23.124 11.5839L18.8468 5.168C18.71 4.96232 18.5244 4.79368 18.3067 4.67711C18.0889 4.56055 17.8456 4.49968 17.5986 4.49994H3.75C3.35231 4.50039 2.97105 4.65858 2.68984 4.93978C2.40864 5.22099 2.25045 5.60225 2.25 5.99994V17.9999C2.25045 18.3976 2.40864 18.7789 2.68984 19.0601C2.97105 19.3413 3.35231 19.4995 3.75 19.4999H17.5986C17.8456 19.5002 18.0889 19.4394 18.3067 19.3228C18.5244 19.2063 18.71 19.0376 18.8468 18.832L18.8467 18.8321L23.124 12.416C23.2062 12.2928 23.25 12.148 23.25 11.9999C23.25 11.8519 23.2062 11.7071 23.124 11.5839Z" fill="#DA3E3E"/>
</svg>
