<svg width="30" height="30" viewBox="0 0 30 30" fill="none" xmlns="http://www.w3.org/2000/svg">
<g clip-path="url(#clip0_1_683)">
<path d="M28.1999 20.3751L18.6124 4.47511C18.2247 3.86863 17.6906 3.36951 17.0592 3.02378C16.4279 2.67805 15.7197 2.49683 14.9999 2.49683C14.2801 2.49683 13.5719 2.67805 12.9405 3.02378C12.3092 3.36951 11.7751 3.86863 11.3874 4.47511L1.79988 20.3751C1.4612 20.9397 1.27712 21.5835 1.26615 22.2417C1.25517 22.9 1.4177 23.5496 1.73738 24.1251C2.10698 24.7729 2.64196 25.311 3.28763 25.6844C3.93331 26.0577 4.66654 26.253 5.41238 26.2501H24.5874C25.3283 26.258 26.0582 26.0703 26.7035 25.706C27.3487 25.3417 27.8864 24.8136 28.2624 24.1751C28.5915 23.5936 28.7592 22.9347 28.7482 22.2666C28.7372 21.5985 28.5479 20.9455 28.1999 20.3751V20.3751ZM14.9999 21.2501C14.7527 21.2501 14.511 21.1768 14.3054 21.0394C14.0999 20.9021 13.9396 20.7069 13.845 20.4785C13.7504 20.2501 13.7257 19.9987 13.7739 19.7562C13.8221 19.5138 13.9412 19.291 14.116 19.1162C14.2908 18.9414 14.5135 18.8224 14.756 18.7741C14.9985 18.7259 15.2498 18.7506 15.4782 18.8453C15.7066 18.9399 15.9019 19.1001 16.0392 19.3056C16.1766 19.5112 16.2499 19.7529 16.2499 20.0001C16.2499 20.3316 16.1182 20.6496 15.8838 20.884C15.6493 21.1184 15.3314 21.2501 14.9999 21.2501ZM16.2499 16.2501C16.2499 16.5816 16.1182 16.8996 15.8838 17.134C15.6493 17.3684 15.3314 17.5001 14.9999 17.5001C14.6684 17.5001 14.3504 17.3684 14.116 17.134C13.8816 16.8996 13.7499 16.5816 13.7499 16.2501V11.2501C13.7499 10.9186 13.8816 10.6006 14.116 10.3662C14.3504 10.1318 14.6684 10.0001 14.9999 10.0001C15.3314 10.0001 15.6493 10.1318 15.8838 10.3662C16.1182 10.6006 16.2499 10.9186 16.2499 11.2501V16.2501Z" fill="#8A8E9F"/>
</g>
<defs>
<clipPath id="clip0_1_683">
<rect width="30" height="30" fill="white"/>
</clipPath>
</defs>
</svg>
