<svg width="25" height="24" viewBox="0 0 25 24" fill="none" xmlns="http://www.w3.org/2000/svg">
<path d="M20.7494 2.99951H7.24878C7.04987 2.99951 6.8591 3.07853 6.71845 3.21918C6.5778 3.35983 6.49878 3.5506 6.49878 3.74951C6.49878 3.94842 6.5778 4.13919 6.71845 4.27984C6.8591 4.42049 7.04987 4.49951 7.24878 4.49951H19.9994V17.2496C19.9994 17.4485 20.0784 17.6393 20.2191 17.7799C20.3597 17.9206 20.5505 17.9996 20.7494 17.9996C20.9483 17.9996 21.1391 17.9206 21.2797 17.7799C21.4204 17.6393 21.4994 17.4485 21.4994 17.2496V3.74951C21.4994 3.5506 21.4204 3.35984 21.2797 3.21918C21.1391 3.07853 20.9483 2.99951 20.7494 2.99951Z" fill="#283F8A"/>
<path d="M17.7493 5.99951H4.24878C3.83457 5.99951 3.49878 6.3353 3.49878 6.74951V20.2495C3.49878 20.6637 3.83457 20.9995 4.24878 20.9995H17.7493C18.1635 20.9995 18.4993 20.6637 18.4993 20.2495V6.74951C18.4993 6.3353 18.1635 5.99951 17.7493 5.99951Z" fill="#283F8A"/>
</svg>
