<svg width="40" height="40" viewBox="0 0 40 40" fill="none" xmlns="http://www.w3.org/2000/svg">
<path d="M32.5 5H7.5C6.83719 5.00076 6.20175 5.26439 5.73307 5.73307C5.26439 6.20175 5.00076 6.83719 5 7.5V32.5C5.00076 33.1628 5.26439 33.7983 5.73307 34.2669C6.20175 34.7356 6.83719 34.9992 7.5 35H32.5C33.1628 34.9992 33.7983 34.7356 34.2669 34.2669C34.7356 33.7983 34.9992 33.1628 35 32.5V7.5C34.9992 6.83719 34.7356 6.20175 34.2669 5.73307C33.7983 5.26439 33.1628 5.00076 32.5 5ZM23.3527 27.7276C22.8304 28.2499 22.2103 28.6642 21.5279 28.9469C20.8455 29.2295 20.1142 29.375 19.3755 29.375C18.6369 29.375 17.9055 29.2295 17.2231 28.9469C16.5407 28.6642 15.9207 28.2499 15.3984 27.7276C15.164 27.4931 15.0323 27.1752 15.0323 26.8437C15.0323 26.5121 15.164 26.1942 15.3985 25.9598C15.6329 25.7254 15.9509 25.5937 16.2824 25.5937C16.6139 25.5937 16.9319 25.7254 17.1663 25.9599C17.5296 26.3231 17.977 26.5912 18.4687 26.7403C18.9604 26.8893 19.4812 26.9149 19.9852 26.8146C20.4891 26.7143 20.9605 26.4913 21.3576 26.1654C21.7548 25.8394 22.0654 25.4205 22.262 24.9458C22.4586 24.4711 22.5352 23.9553 22.4848 23.4439C22.4344 22.9326 22.2588 22.4416 21.9733 22.0144C21.6879 21.5872 21.3015 21.2369 20.8484 20.9947C20.3953 20.7525 19.8894 20.6257 19.3756 20.6257C19.147 20.6257 18.9227 20.563 18.7272 20.4444C18.5317 20.3258 18.3725 20.1559 18.2669 19.9531C18.1613 19.7503 18.1133 19.5224 18.1282 19.2942C18.1431 19.0661 18.2203 18.8464 18.3514 18.6591L21.3489 14.375H16.25C15.9185 14.375 15.6005 14.2433 15.3661 14.0089C15.1317 13.7745 15 13.4565 15 13.125C15 12.7935 15.1317 12.4755 15.3661 12.2411C15.6005 12.0067 15.9185 11.875 16.25 11.875H23.7491C23.9777 11.875 24.202 11.9377 24.3975 12.0563C24.593 12.1749 24.7522 12.3448 24.8578 12.5476C24.9634 12.7504 25.0114 12.9783 24.9965 13.2064C24.9816 13.4346 24.9043 13.6543 24.7733 13.8416L21.4896 18.5349C22.35 18.8843 23.1106 19.4412 23.7036 20.1559C24.2965 20.8707 24.7034 21.7211 24.8879 22.6313C25.0723 23.5415 25.0287 24.4832 24.7608 25.3724C24.4929 26.2616 24.0092 27.0707 23.3527 27.7276V27.7276Z" fill="#DA3E3E"/>
</svg>
