<svg width="40" height="40" viewBox="0 0 40 40" fill="none" xmlns="http://www.w3.org/2000/svg">
<path d="M32.5 5H7.5C6.83719 5.00076 6.20175 5.26439 5.73307 5.73307C5.26439 6.20175 5.00076 6.83719 5 7.5V32.5C5.00076 33.1628 5.26439 33.7983 5.73307 34.2669C6.20175 34.7356 6.83719 34.9992 7.5 35H32.5C33.1628 34.9992 33.7983 34.7356 34.2669 34.2669C34.7356 33.7983 34.9992 33.1628 35 32.5V7.5C34.9992 6.83719 34.7356 6.20175 34.2669 5.73307C33.7983 5.26439 33.1628 5.00076 32.5 5ZM23.75 26.2491C24.0815 26.2491 24.3995 26.3808 24.6339 26.6152C24.8683 26.8496 25 27.1676 25 27.4991C25 27.8306 24.8683 28.1485 24.6339 28.383C24.3995 28.6174 24.0815 28.7491 23.75 28.7491H16.2996C16.283 28.7498 16.2665 28.7501 16.2498 28.7501C16.0155 28.75 15.786 28.684 15.5873 28.5598C15.3887 28.4356 15.229 28.258 15.1263 28.0474C15.0237 27.8367 14.9823 27.6015 15.0069 27.3685C15.0315 27.1355 15.121 26.9141 15.2654 26.7295L22.0891 17.6239C22.2799 17.3335 22.4081 17.0065 22.4656 16.6638C22.523 16.3211 22.5083 15.9701 22.4226 15.6334C22.3368 15.2966 22.1818 14.9815 21.9674 14.708C21.753 14.4345 21.484 14.2087 21.1775 14.045C20.871 13.8812 20.5337 13.7832 20.1872 13.7571C19.8407 13.731 19.4925 13.7774 19.1649 13.8933C18.8374 14.0093 18.5375 14.1922 18.2846 14.4305C18.0317 14.6688 17.8312 14.9572 17.6959 15.2773C17.5668 15.5826 17.3216 15.8241 17.0144 15.9487C16.7072 16.0733 16.3631 16.0708 16.0577 15.9416C15.7524 15.8125 15.5109 15.5673 15.3863 15.2601C15.2617 14.9529 15.2642 14.6088 15.3934 14.3034C15.6649 13.6611 16.0678 13.0826 16.5762 12.6052C17.0846 12.1278 17.6872 11.762 18.3454 11.5314C19.0035 11.3007 19.7026 11.2103 20.3978 11.2658C21.093 11.3214 21.7689 11.5218 22.382 11.854C22.9952 12.1863 23.532 12.6432 23.9581 13.1953C24.3842 13.7474 24.6901 14.3825 24.8562 15.0598C25.0222 15.7372 25.0448 16.4418 24.9224 17.1283C24.7999 17.8149 24.5353 18.4683 24.1454 19.0465C24.1339 19.0633 24.1222 19.08 24.1098 19.0962L18.7495 26.2491L23.75 26.2491Z" fill="#DA3E3E"/>
</svg>
