<svg width="40" height="40" viewBox="0 0 40 40" fill="none" xmlns="http://www.w3.org/2000/svg">
<path d="M32.5 5H7.5C6.83722 5.00086 6.20184 5.26453 5.73319 5.73319C5.26453 6.20184 5.00086 6.83722 5 7.5V32.5C5.00086 33.1628 5.26453 33.7982 5.73319 34.2668C6.20184 34.7355 6.83722 34.9991 7.5 35H32.5C33.1628 34.9991 33.7982 34.7355 34.2668 34.2668C34.7355 33.7982 34.9991 33.1628 35 32.5V7.5C34.9991 6.83722 34.7355 6.20184 34.2668 5.73319C33.7982 5.26453 33.1628 5.00086 32.5 5ZM21.8738 27.4988C21.8738 27.8303 21.7421 28.1482 21.5077 28.3827C21.2732 28.6171 20.9553 28.7488 20.6238 28.7488C20.2923 28.7488 19.9743 28.6171 19.7399 28.3827C19.5055 28.1482 19.3738 27.8303 19.3738 27.4988V15.4614L17.5696 16.6638C17.433 16.755 17.2798 16.8185 17.1187 16.8504C16.9576 16.8824 16.7918 16.8823 16.6307 16.8502C16.4696 16.8181 16.3165 16.7545 16.18 16.6631C16.0435 16.5718 15.9264 16.4544 15.8353 16.3177C15.7442 16.1811 15.6809 16.0278 15.649 15.8667C15.6172 15.7056 15.6174 15.5397 15.6497 15.3787C15.682 15.2177 15.7457 15.0646 15.8372 14.9282C15.9287 14.7918 16.0461 14.6747 16.1829 14.5837L19.9304 12.085C20.1187 11.9594 20.3374 11.8874 20.5634 11.8764C20.7894 11.8655 21.0142 11.9161 21.2136 12.0228C21.4131 12.1296 21.5799 12.2885 21.6962 12.4826C21.8124 12.6767 21.8738 12.8987 21.8738 13.125V27.4988Z" fill="#DA3E3E"/>
</svg>
