<svg width="40" height="40" viewBox="0 0 40 40" fill="none" xmlns="http://www.w3.org/2000/svg">
<path d="M32.5 5H7.5C6.83719 5.00076 6.20175 5.26439 5.73307 5.73307C5.26439 6.20175 5.00076 6.83719 5 7.5V32.5C5.00076 33.1628 5.26439 33.7983 5.73307 34.2669C6.20175 34.7356 6.83719 34.9992 7.5 35H32.5C33.1628 34.9992 33.7983 34.7356 34.2669 34.2669C34.7356 33.7983 34.9992 33.1628 35 32.5V7.5C34.9992 6.83719 34.7356 6.20175 34.2669 5.73307C33.7983 5.26439 33.1628 5.00076 32.5 5ZM24.375 27.5C24.375 27.8315 24.2433 28.1495 24.0089 28.3839C23.7745 28.6183 23.4565 28.75 23.125 28.75C22.7935 28.75 22.4755 28.6183 22.2411 28.3839C22.0067 28.1495 21.875 27.8315 21.875 27.5V23.75H15.625C15.4251 23.75 15.2281 23.702 15.0505 23.6101C14.873 23.5183 14.7201 23.3851 14.6046 23.2219C14.4892 23.0587 14.4145 22.8702 14.387 22.6722C14.3594 22.4742 14.3797 22.2725 14.4463 22.084L18.1959 11.459C18.3063 11.1463 18.5363 10.8904 18.8354 10.7473C19.1344 10.6043 19.4781 10.5859 19.7907 10.6963C20.1033 10.8066 20.3593 11.0366 20.5024 11.3357C20.6454 11.6348 20.6638 11.9784 20.5534 12.291L17.3917 21.25H21.875V17.5C21.875 17.1685 22.0067 16.8505 22.2411 16.6161C22.4755 16.3817 22.7935 16.25 23.125 16.25C23.4565 16.25 23.7745 16.3817 24.0089 16.6161C24.2433 16.8505 24.375 17.1685 24.375 17.5V27.5Z" fill="#DA3E3E"/>
</svg>
